<svg xmlns="http://www.w3.org/2000/svg" width="374" height="277" viewBox="0 0 374 277" fill="none"><path stroke="#76a1cc" stroke-width="10"  d="M247.066 149.065a5.94 5.94 0 0 1-4.353 1.84h-43.328v68.18a6.28 6.28 0 0 1-6.19 6.2h-37.138a6.28 6.28 0 0 1-6.19-6.2v-68.18h-43.33a5.974 5.974 0 0 1-6.19-6.2 7.28 7.28 0 0 1 1.936-4.65l67.894-67.99a6.53 6.53 0 0 1 8.9 0l68.087 68.18a6.04 6.04 0 0 1 1.74 4.46 5.97 5.97 0 0 1-1.838 4.36zm109.48 5.23a73.163 73.163 0 0 0-41.3-26.25 49.4 49.4 0 0 0-73.7-64.31 99.127 99.127 0 0 0-91.685-61.6q-41.01 0-70.02 29.05-29.015 29.07-29.016 70.13c0 1.68.127 4.45.387 8.33a86.64 86.64 0 0 0-49.9 78.45q0 35.835 25.437 61.31t61.222 25.47h210.45q30.757 0 52.518-21.79t21.76-52.59a72.037 72.037 0 0 0-16.15-46.2z"/></svg>
