<svg xmlns="http://www.w3.org/2000/svg" width="511.613" height="511.613" viewBox="0 0 511.613 511.613" fill="none" stroke="#83aad1">
  <path d="M385.26 311.475c-2.47-8.367-5.468-15.65-8.99-21.833-3.518-6.19-8.558-12.228-15.13-18.134-6.562-5.903-12.466-10.657-17.7-14.27-5.233-3.618-12.42-7.662-21.558-12.138-9.13-4.475-16.364-7.805-21.69-9.995-5.33-2.187-13.044-5.185-23.133-8.992-8.946-3.424-15.606-6.042-19.988-7.85-4.377-1.808-10.133-4.376-17.27-7.71-7.136-3.327-12.466-6.28-15.988-8.847-3.52-2.568-7.28-5.708-11.277-9.42-3.998-3.71-6.805-7.66-8.424-11.847-1.615-4.19-2.425-8.758-2.425-13.707 0-12.94 5.708-23.507 17.128-31.69 11.42-8.18 26.174-12.274 44.257-12.274 7.99 0 16.136 1.092 24.41 3.283s15.365 4.66 21.266 7.42c5.905 2.763 11.47 5.81 16.706 9.138 5.235 3.333 8.945 5.853 11.136 7.566 2.19 1.714 3.576 2.855 4.14 3.427 2.48 1.903 5.042 2.568 7.707 2 2.853-.19 5.044-1.716 6.57-4.568l23.13-41.684c2.283-3.804 1.81-7.42-1.427-10.85-1.144-1.14-2.566-2.472-4.29-3.996-1.71-1.524-5.422-4.283-11.137-8.282-5.71-3.996-11.752-7.565-18.124-10.706-6.38-3.138-14.66-6.328-24.845-9.562-10.178-3.24-20.697-5.426-31.55-6.567V9.137c0-2.664-.854-4.854-2.562-6.568C282.493.86 280.303 0 277.635 0h-38.547c-2.474 0-4.615.903-6.423 2.712s-2.712 3.95-2.712 6.424v51.39c-29.884 5.71-54.152 18.462-72.805 38.257-18.65 19.796-27.98 42.823-27.98 69.092 0 7.803.812 15.226 2.43 22.265 1.616 7.045 3.616 13.374 5.996 18.988 2.378 5.618 5.758 11.136 10.135 16.562 4.376 5.424 8.517 10.088 12.418 13.988 3.903 3.9 8.995 7.945 15.274 12.13 6.283 4.19 11.66 7.572 16.134 10.14 4.475 2.56 10.422 5.52 17.843 8.843 7.422 3.334 13.277 5.853 17.56 7.57 4.283 1.71 10.135 4.093 17.56 7.132 10.278 3.997 17.893 7.09 22.84 9.28 4.953 2.19 11.232 5.236 18.85 9.138 7.61 3.898 13.176 7.468 16.7 10.705 3.52 3.237 6.708 7.234 9.565 11.99s4.288 9.802 4.288 15.134c0 15.036-5.853 26.644-17.562 34.822-11.703 8.187-25.27 12.28-40.684 12.28-7.036 0-14.084-.758-21.124-2.28-24.744-4.955-47.87-16.85-69.377-35.693l-.57-.572c-1.715-2.088-4-2.946-6.852-2.563-3.046.38-5.236 1.523-6.567 3.43l-29.408 38.54c-2.856 3.806-2.663 7.707.572 11.704.953 1.142 2.618 2.86 4.996 5.14 2.384 2.288 6.81 5.85 13.278 10.714 6.47 4.856 13.513 9.418 21.128 13.706 7.614 4.28 17.272 8.514 28.98 12.703 11.708 4.182 23.84 7.13 36.402 8.843v49.963c0 2.477.905 4.616 2.712 6.426 1.81 1.81 3.95 2.71 6.423 2.71h38.545c2.67 0 4.86-.854 6.57-2.565s2.563-3.9 2.563-6.57v-49.963c30.27-4.948 54.87-17.94 73.806-38.972 18.938-21.033 28.41-46.11 28.41-75.23-.01-9.514-1.245-18.46-3.743-26.84z"/>
</svg>
