<svg height="30" viewBox="0 0 32 32" width="30" xmlns="http://www.w3.org/2000/svg"><g fill="#121313"><path d="M22.285 15.35L16 21.543l-6.285-6.196c-.394-.39-1.034-.39-1.428 0-.394.39-.394 1.024 0 1.414l7 6.9c.378.374 1.047.376 1.428 0l7-6.9c.393-.39.393-1.025 0-1.415-.396-.39-1.036-.39-1.43.002z"/><path d="M15.286 16.662c.38.375 1.048.377 1.43 0l6.998-6.9c.394-.39.394-1.023 0-1.413-.394-.392-1.034-.392-1.428 0L16 14.543 9.715 8.35c-.394-.392-1.034-.392-1.428 0-.394.39-.394 1.023 0 1.413l7 6.9z"/></g></svg>
