<svg xmlns="http://www.w3.org/2000/svg" width="438.529" height="438.529" viewBox="0 0 438.529 438.529" fill="none" stroke="#83aad1">
  <path d="M436.25 181.438c-1.53-2.002-3.524-3.193-5.995-3.57l-52.25-7.993c-2.853-9.137-6.755-18.46-11.703-27.98 3.422-4.758 8.56-11.466 15.41-20.13 6.85-8.66 11.703-14.986 14.56-18.985 1.524-2.094 2.28-4.28 2.28-6.567 0-2.663-.66-4.755-1.998-6.28-6.848-9.708-22.552-25.885-47.106-48.536-2.275-1.903-4.66-2.854-7.132-2.854-2.857 0-5.14.855-6.854 2.567l-40.54 30.55c-7.805-4-16.37-7.52-25.692-10.566l-7.994-52.53c-.19-2.473-1.287-4.52-3.285-6.138-2-1.62-4.327-2.426-6.996-2.426h-63.38c-5.52 0-8.947 2.663-10.278 7.993-2.475 9.513-5.236 27.214-8.28 53.1-8.947 2.86-17.607 6.476-25.98 10.853l-39.4-30.55c-2.474-1.902-4.948-2.853-7.422-2.853-4.187 0-13.18 6.804-26.98 20.413-13.8 13.612-23.168 23.84-28.12 30.69-1.715 2.474-2.57 4.664-2.57 6.567 0 2.286.95 4.57 2.854 6.85 12.75 15.42 22.936 28.55 30.55 39.404-4.76 8.754-8.47 17.51-11.132 26.265L7.71 176.724c-2.092.382-3.9 1.62-5.423 3.715C.76 182.53 0 184.72 0 187v63.383c0 2.478.76 4.71 2.284 6.708 1.524 1.998 3.52 3.195 5.996 3.572l52.25 7.71c2.663 9.325 6.564 18.743 11.704 28.257-3.424 4.76-8.563 11.468-15.415 20.13-6.852 8.664-11.71 14.988-14.562 18.985-1.525 2.102-2.285 4.285-2.285 6.57 0 2.47.666 4.658 1.997 6.56 7.423 10.285 23.125 26.273 47.11 47.97 2.094 2.094 4.474 3.138 7.136 3.138 2.857 0 5.236-.852 7.138-2.563l40.26-30.553c7.807 3.996 16.37 7.518 25.696 10.567l7.993 52.53c.193 2.47 1.287 4.517 3.283 6.14 1.997 1.62 4.33 2.422 6.995 2.422h63.38c5.53 0 8.953-2.663 10.288-7.995 2.47-9.514 5.23-27.213 8.274-53.098 8.946-2.858 17.607-6.476 25.98-10.855l39.403 30.84c2.663 1.712 5.14 2.563 7.42 2.563 4.186 0 13.13-6.752 26.833-20.27 13.71-13.51 23.13-23.79 28.264-30.837 1.71-1.902 2.57-4.09 2.57-6.56 0-2.48-.948-4.863-2.858-7.14-13.698-16.754-23.883-29.882-30.546-39.402 3.806-7.043 7.52-15.7 11.136-25.98l52.817-7.988c2.28-.383 4.19-1.622 5.71-3.716 1.522-2.098 2.278-4.288 2.278-6.57v-63.377c.005-2.474-.75-4.707-2.278-6.707zm-165.304 89.5c-14.27 14.278-31.497 21.417-51.676 21.417-20.177 0-37.4-7.14-51.678-21.416-14.272-14.272-21.41-31.5-21.41-51.674 0-20.177 7.134-37.4 21.41-51.678 14.277-14.272 31.504-21.41 51.678-21.41 20.18 0 37.406 7.138 51.676 21.41 14.274 14.277 21.413 31.5 21.413 51.678 0 20.175-7.14 37.403-21.414 51.673z"/>
</svg>
