<svg xmlns="http://www.w3.org/2000/svg" width="25" height="26" viewBox="0 0 151.332 157.385">
  <path d="M900.592,3101.63a30.4,30.4,0,0,1,4.551-4.77q2.676-2.3,5.316-5.05a23.435,23.435,0,0,0,4.512-7.22,27.97,27.97,0,0,0-1.032-22.48,36.8,36.8,0,0,0-8.566-10.33h10.019l10.555-6.83H893.976a56.409,56.409,0,0,0-16.635,2.48,38.136,38.136,0,0,0-13.959,7.61,29.971,29.971,0,0,0-7.572,10.17,29.248,29.248,0,0,0-2.754,12.35q0,11.49,7.764,18.99a26.444,26.444,0,0,0,19.083,7.49c1.121,0,2.855-.1,5.2-0.31a17.428,17.428,0,0,0-1.606,6.6,13.025,13.025,0,0,0,1.185,5.67,35.235,35.235,0,0,0,3.633,5.74q-20.88,1.4-30.9,7.77a28.683,28.683,0,0,0-9.063,8.93,21.278,21.278,0,0,0-3.4,11.64,19.253,19.253,0,0,0,2.83,10.18,24.345,24.345,0,0,0,13.117,10.67,54.137,54.137,0,0,0,18.854,3.23,58.206,58.206,0,0,0,22.793-4.47,32.733,32.733,0,0,0,16.138-13.94,26.732,26.732,0,0,0,3.671-13.43,24.654,24.654,0,0,0-2.447-11.03,26.47,26.47,0,0,0-5.89-8.07q-3.441-3.1-6.922-5.71a41.756,41.756,0,0,1-5.927-5.28,8.123,8.123,0,0,1-2.448-5.47A8.438,8.438,0,0,1,900.592,3101.63Zm-20.421-4.35a19.085,19.085,0,0,1-5.737-5.2,33.679,33.679,0,0,1-3.977-7.18,41.422,41.422,0,0,1-2.409-8,40.228,40.228,0,0,1-.765-7.57q0-7.845,3.6-12.42a13.538,13.538,0,0,1,5.009-4.08,14.084,14.084,0,0,1,15.259,1.67,23.085,23.085,0,0,1,6.463,8.04,49.479,49.479,0,0,1,3.71,10.05,40.262,40.262,0,0,1,1.3,9.71q0,7.92-4.054,12.34a14.553,14.553,0,0,1-5.048,3.38,15.281,15.281,0,0,1-5.966,1.28A14.17,14.17,0,0,1,880.171,3097.28Zm-2.219,68.68a38.146,38.146,0,0,1-9.1-3.41,18.553,18.553,0,0,1-7-6.45,17.3,17.3,0,0,1-2.677-9.59,16.222,16.222,0,0,1,2.065-8.19,17.223,17.223,0,0,1,5.24-5.78,29.475,29.475,0,0,1,7.419-3.58,47.245,47.245,0,0,1,8.222-1.94,59.614,59.614,0,0,1,8.031-.54,32.885,32.885,0,0,1,3.671.15c0.153,0.11,1.083.78,2.792,2.02s2.765,2.02,3.174,2.33,1.339,1.06,2.792,2.25a27.542,27.542,0,0,1,2.944,2.68c0.51,0.6,1.263,1.51,2.257,2.72a13.529,13.529,0,0,1,2.065,3.22,32.763,32.763,0,0,1,1.109,3.26,13.846,13.846,0,0,1,.535,3.81,16.626,16.626,0,0,1-2.1,8.46,15.081,15.081,0,0,1-5.583,5.67,28.49,28.49,0,0,1-7.572,3.03,35.647,35.647,0,0,1-8.529,1.01A42.427,42.427,0,0,1,877.952,3165.96Zm71.706-83.74h-8.031v16.85H925.412v8.39h16.215v17h8.031v-17h16.291v-8.39H949.658v-16.85Z" transform="translate(-829.772 -3030.858)"/>
</svg>
