<svg xmlns="http://www.w3.org/2000/svg" width="364" height="310" viewBox="0 0 364 310" fill="none">

  <path  stroke="#76a1cc" stroke-width="10" d="M1086.09,3306.35a169.833,169.833,0,0,0-38.68-52.48q-24.21-22.17-57.478-35.38a187.715,187.715,0,0,0-138.3,0q-33.279,13.2-57.479,35.38a169.735,169.735,0,0,0-38.679,52.48A144.426,144.426,0,0,0,741,3369.33a179.35,179.35,0,0,0,12.965,67.95l4.322,10.61,39.976,7.14a54.178,54.178,0,0,0,19.556,29.54,53.384,53.384,0,0,0,33.817,11.58v6.92a6.667,6.667,0,0,0,6.915,6.93h13.83a6.665,6.665,0,0,0,6.914-6.93V3378.42a6.665,6.665,0,0,0-6.914-6.93h-13.83a6.667,6.667,0,0,0-6.915,6.93v6.93a53.4,53.4,0,0,0-28.091,7.68,55.771,55.771,0,0,0-20.1,20.67l-14.694-2.6a142.455,142.455,0,0,1-6.266-41.77q0-32.025,19.015-60.38t51.105-45.23a146.113,146.113,0,0,1,136.35,0q32.087,16.875,51.1,45.23t19.02,60.38a142.46,142.46,0,0,1-6.27,41.77l-14.69,2.6a55.828,55.828,0,0,0-20.1-20.67,53.4,53.4,0,0,0-28.088-7.68v-6.93a6.667,6.667,0,0,0-6.915-6.93h-13.83a6.665,6.665,0,0,0-6.914,6.93v124.65a6.665,6.665,0,0,0,6.914,6.93h13.83a6.667,6.667,0,0,0,6.915-6.93v-6.92a53.4,53.4,0,0,0,33.818-11.58,54.232,54.232,0,0,0,19.55-29.54l39.98-7.14,4.32-10.61a179.219,179.219,0,0,0,12.97-67.95A144.47,144.47,0,0,0,1086.09,3306.35Z" transform="translate(-738.78 -3202.64)"/>
</svg>
