<svg xmlns="http://www.w3.org/2000/svg" width="25" height="25" viewBox="0 0 190.114 190.114">
    <path d="M888.881,3183v98.07h32.67V3183h-32.67Zm29.7-42.4q-4.952-4.8-13.167-4.8t-13.315,4.8a15.928,15.928,0,0,0-5.1,12.12,16.232,16.232,0,0,0,4.95,12.08q4.95,4.845,13.068,4.84h0.2q8.316,0,13.415-4.84a15.689,15.689,0,0,0,5-12.08A16.5,16.5,0,0,0,918.581,3140.6Zm110.189,51.36q-10.305-11.235-27.23-11.23a39.335,39.335,0,0,0-11.331,1.53,25.611,25.611,0,0,0-8.613,4.31,41.889,41.889,0,0,0-5.594,5.14,42.893,42.893,0,0,0-4.059,5.54h0.2V3183H939.57l0.1,4.75q0.1,4.755.1,29.29t-0.2,64.03h32.571v-54.73a23.876,23.876,0,0,1,1.089-8.01,20.958,20.958,0,0,1,6.287-8.46,16.017,16.017,0,0,1,10.444-3.42q8.514,0,12.529,5.89t4,16.28v52.45h32.58v-56.21Q1039.07,3203.185,1028.77,3191.96Z" transform="translate(-867.973 -3113.378)"/>
</svg>
