<svg xmlns="http://www.w3.org/2000/svg" width="206" height="277" viewBox="0 0 206 277" fill="none"><path stroke="#76a1cc" stroke-width="10" d="M57.696 138.5V81.81a45.307 45.307 0 1 1 90.614 0 11.5 11.5 0 0 0 11.327 11.34h11.325a11.5 11.5 0 0 0 11.326-11.34q0-32.775-23.273-56.07T103 2.44q-32.743 0-56.013 23.3T23.714 81.81v56.69h-5.662a16.927 16.927 0 0 0-16.99 17.01v102.04a16.927 16.927 0 0 0 16.99 17.01h169.9a16.927 16.927 0 0 0 16.99-17.01V155.51a16.927 16.927 0 0 0-16.99-17.01H57.696z"/></svg>
