<svg xmlns="http://www.w3.org/2000/svg" width="438.54" height="438.539" viewBox="0 0 438.54 438.539" fill="none" stroke="#83aad1">
  <path d="M182.156 140.477V2.004c-34.073 5.708-65.002 18.748-92.793 39.115-27.79 20.366-49.632 46.014-65.524 76.943C7.945 148.998 0 182.258 0 217.85c0 53.293 17.227 100.403 51.676 141.325 38.83-18.843 70.283-48.01 94.36-87.508 24.08-39.5 36.12-83.224 36.12-131.19zM414.697 118.056c-15.892-30.93-37.732-56.582-65.52-76.944C321.386 20.745 290.452 7.708 256.386 2v138.473c0 47.967 12.044 91.695 36.115 131.194 24.078 39.498 55.538 68.665 94.366 87.508 34.454-40.922 51.67-88.032 51.67-141.325-.005-35.596-7.94-68.86-23.84-99.794zM256.245 349.466c-18.556-23.6-31.173-49.107-37.83-76.52-6.472 27.412-18.987 52.92-37.545 76.52-18.56 23.596-40.968 43.68-67.237 60.237 32.548 17.89 67.475 26.836 104.78 26.836 37.496 0 72.518-8.946 105.06-26.837-26.26-16.557-48.667-36.638-67.228-60.237z"/>
</svg>
