<svg xmlns="http://www.w3.org/2000/svg" width="466.227" height="466.227" viewBox="0 0 466.227 466.227" fill="none" stroke="#83aad1">
  <path d="M463.36 2.852C461.454 1.047 459.172.14 456.506.14c-49.677 0-90.694 6.755-123.05 20.27-32.354 13.52-66.425 38.073-102.21 73.663C216.023 109.49 199.27 128.05 181 149.748l-108.206 5.708c-3.046.387-5.52 1.906-7.423 4.57L1.42 269.666c-2.285 3.806-1.807 7.52 1.427 11.136l18.27 18.27c1.715 1.715 3.902 2.57 6.568 2.57 1.143 0 1.997-.096 2.568-.287l78.803-24.273 80.228 80.232-24.268 78.795c-.95 3.43-.188 6.47 2.285 9.137l18.272 18.274c2.093 1.708 4.284 2.567 6.566 2.567 1.716 0 3.238-.384 4.57-1.144l109.638-63.953c2.666-1.902 4.186-4.373 4.568-7.42l5.708-108.208c21.7-18.274 40.262-35.022 55.676-50.25 33.89-34.075 58.01-68.38 72.375-102.924 14.374-34.547 21.557-75.52 21.557-122.91-.003-2.474-.954-4.614-2.867-6.426zM394.277 110.92c-5.325 5.326-11.8 7.994-19.414 7.994s-14.082-2.665-19.414-7.994c-5.326-5.33-7.995-11.802-7.995-19.417 0-7.61 2.666-14.084 7.994-19.414 5.327-5.328 11.8-7.994 19.413-7.994s14.086 2.663 19.414 7.993 7.994 11.802 7.994 19.413c0 7.616-2.658 14.083-7.993 19.417z"/>
</svg>
