<svg xmlns="http://www.w3.org/2000/svg" width="401.998" height="401.998" viewBox="0 0 401.998 401.998" fill="#6b6a6a">
  <path d="M401.13 311.475c-1.138-3.426-8.372-8.473-21.698-15.13-3.61-2.097-8.754-4.948-15.41-8.565-6.662-3.617-12.71-6.95-18.13-9.996-5.432-3.045-10.52-5.995-15.276-8.846-.76-.57-3.14-2.234-7.136-5-4-2.758-7.375-4.805-10.14-6.14-2.76-1.327-5.473-1.995-8.138-1.995-3.806 0-8.56 2.714-14.268 8.135-5.708 5.428-10.944 11.324-15.7 17.706-4.757 6.38-9.802 12.275-15.126 17.7-5.332 5.427-9.713 8.138-13.135 8.138-1.718 0-3.86-.48-6.427-1.424-2.566-.95-4.518-1.766-5.858-2.423-1.328-.67-3.607-2-6.845-4.004-3.244-1.998-5.048-3.093-5.428-3.284-26.075-14.47-48.438-31.03-67.093-49.676-18.65-18.658-35.21-41.02-49.676-67.097-.19-.38-1.287-2.19-3.284-5.424-2-3.238-3.333-5.52-4-6.855-.665-1.33-1.474-3.283-2.424-5.852s-1.427-4.71-1.427-6.424c0-3.425 2.714-7.805 8.14-13.135 5.423-5.327 11.325-10.373 17.7-15.128 6.378-4.755 12.274-9.99 17.7-15.7 5.424-5.71 8.136-10.466 8.136-14.272 0-2.663-.666-5.378-1.997-8.137-1.333-2.765-3.38-6.14-6.14-10.138-2.762-3.997-4.427-6.374-5-7.14-2.85-4.754-5.798-9.845-8.847-15.27-3.05-5.424-6.377-11.47-9.995-18.13-3.615-6.66-6.468-11.8-8.564-15.416C98.986 9.234 93.944 1.997 90.516.86 89.183.287 87.183 0 84.52 0c-5.14 0-11.85.95-20.128 2.856-8.282 1.903-14.8 3.9-19.558 5.996-9.517 3.995-19.604 15.605-30.264 34.826C4.863 61.566.01 79.27.01 96.78c0 5.135.333 10.13 1 14.99.665 4.852 1.855 10.325 3.57 16.417 1.712 6.09 3.093 10.614 4.137 13.56 1.045 2.948 2.996 8.23 5.852 15.845 2.85 7.614 4.566 12.275 5.137 13.988 6.66 18.654 14.56 35.307 23.695 49.964 15.03 24.362 35.54 49.54 61.52 75.52 25.982 25.98 51.154 46.49 75.518 61.527 14.655 9.135 31.314 17.033 49.965 23.7 1.714.567 6.375 2.278 13.986 5.14 7.615 2.854 12.898 4.805 15.846 5.852 2.95 1.048 7.474 2.43 13.56 4.145 6.097 1.715 11.565 2.905 16.418 3.576 4.856.657 9.853.996 14.99.996 17.507 0 35.213-4.857 53.104-14.563 19.22-10.656 30.826-20.745 34.823-30.27 2.103-4.753 4.094-11.272 5.997-19.554 1.91-8.278 2.857-14.985 2.857-20.126.006-2.673-.28-4.668-.855-6.012z"/>
</svg>
