<svg xmlns="http://www.w3.org/2000/svg" width="334" height="320" viewBox="0 0 334 320" fill="none"><path stroke="#76a1cc" stroke-width="10" d="M50.92 261.565a13.326 13.326 0 0 1-18.657 0 13.18 13.18 0 1 1 22.575-9.36 12.54 12.54 0 0 1-3.917 9.36zm32.987-124a12.68 12.68 0 0 0-9.277-3.91H15.26a13.366 13.366 0 0 0-13.2 13.17v131.72a13.366 13.366 0 0 0 13.2 13.18h59.37a13.366 13.366 0 0 0 13.194-13.18v-131.72a12.654 12.654 0 0 0-3.917-9.26zm236.263-18.52q-11.745-11.745-27.83-11.74h-57.11c.55-1.92 1.1-3.56 1.65-4.94a34.685 34.685 0 0 1 2.27-4.52c.96-1.65 1.65-2.89 2.06-3.71q3.7-6.99 5.67-11.52a84.57 84.57 0 0 0 3.92-12.35 64.522 64.522 0 0 0 1.96-15.65q0-4.935-.11-8.02a87.91 87.91 0 0 0-1.03-9.26 51.81 51.81 0 0 0-2.47-10.3 47.633 47.633 0 0 0-4.95-9.26 28.984 28.984 0 0 0-8.25-8.33 45.047 45.047 0 0 0-12.37-5.35 61.26 61.26 0 0 0-17.01-2.17 12.7 12.7 0 0 0-9.27 3.91 35.73 35.73 0 0 0-7.01 10.3 59.983 59.983 0 0 0-4.02 10.7q-1.14 4.53-2.58 12.55-1.86 8.655-2.78 12.46a66.754 66.754 0 0 1-3.61 9.98 31.72 31.72 0 0 1-6.39 9.88q-6.81 6.78-20.824 24.7-10.1 13.17-20.823 24.9t-15.668 12.14a13.55 13.55 0 0 0-8.865 4.22 12.423 12.423 0 0 0-3.71 8.95v131.93a12.294 12.294 0 0 0 3.916 9.16 13.66 13.66 0 0 0 9.277 4.02q7.215.195 32.574 9.05 15.875 5.355 24.843 8.13 8.97 2.79 25.05 5.97a153.115 153.115 0 0 0 29.69 3.19h26.59q27.42-.4 40.62-16.05 11.955-14.205 10.1-37.26a39.99 39.99 0 0 0 11.13-19.34 42.16 42.16 0 0 0 0-24.08 42.71 42.71 0 0 0 8.87-28.2 49.443 49.443 0 0 0-3.1-15.64 45.086 45.086 0 0 0 11.34-30.67q0-16.05-11.75-27.78z"/></svg>
