<svg xmlns="http://www.w3.org/2000/svg" width="25" height="22" viewBox="0 0 118.765 104.513"><path  d="M928.838,3058.08a18.88,18.88,0,0,0,8.552-10.72,38.047,38.047,0,0,1-12.347,4.7,19.461,19.461,0,0,0-33.667,13.31,21.582,21.582,0,0,0,.482,4.46,54.089,54.089,0,0,1-22.375-6,54.968,54.968,0,0,1-17.737-14.36,19.5,19.5,0,0,0-.3,19.09,19.478,19.478,0,0,0,6.324,6.93,19.367,19.367,0,0,1-8.793-2.47v0.24a18.767,18.767,0,0,0,4.427,12.37,19.094,19.094,0,0,0,11.172,6.72,20.2,20.2,0,0,1-5.119.66,24.73,24.73,0,0,1-3.674-.3,19.514,19.514,0,0,0,18.189,13.49,38.1,38.1,0,0,1-24.152,8.31,41.787,41.787,0,0,1-4.7-.24,54.038,54.038,0,0,0,29.874,8.73,56.828,56.828,0,0,0,19.453-3.28,49.587,49.587,0,0,0,15.539-8.79,58.957,58.957,0,0,0,11.112-12.68,56.5,56.5,0,0,0,6.957-14.96,55.3,55.3,0,0,0,2.288-15.63c0-1.12-.02-1.97-0.06-2.53a40.68,40.68,0,0,0,9.757-10.06,38.583,38.583,0,0,1-11.2,3.01h0Z" transform="translate(-833.196 -3032.198)"/></svg>
