<svg xmlns="http://www.w3.org/2000/svg" width="438.529" height="438.529" viewBox="0 0 438.529 438.529" fill="#6b6a6a">
  <path d="M219.265 219.267c30.27 0 56.108-10.71 77.518-32.12 21.412-21.412 32.12-47.25 32.12-77.516 0-30.26-10.708-56.1-32.12-77.515C275.366 10.705 249.528 0 219.265 0S163.16 10.705 141.75 32.115c-21.414 21.416-32.12 47.253-32.12 77.516 0 30.268 10.706 56.105 32.12 77.516 21.416 21.41 47.25 32.12 77.515 32.12z"/>
  <path d="M419.258 335.036c-.668-9.61-2.002-19.985-3.997-31.12-1.998-11.137-4.523-21.458-7.57-30.98-3.045-9.513-7.138-18.793-12.277-27.835-5.137-9.04-11.037-16.747-17.703-23.126-6.666-6.377-14.8-11.465-24.406-15.27-9.617-3.806-20.23-5.712-31.84-5.712-1.71 0-5.71 2.046-11.99 6.14-6.277 4.092-13.368 8.66-21.267 13.707-7.898 5.036-18.182 9.608-30.834 13.694-12.658 4.093-25.36 6.14-38.118 6.14-12.752 0-25.456-2.047-38.112-6.14-12.655-4.086-22.936-8.658-30.835-13.695-7.898-5.047-14.987-9.615-21.267-13.71-6.282-4.092-10.277-6.138-11.99-6.138-11.61 0-22.222 1.906-31.833 5.71-9.613 3.807-17.75 8.9-24.412 15.272-6.66 6.38-12.562 14.086-17.7 23.127-5.136 9.043-9.228 18.327-12.274 27.837-3.044 9.52-5.567 19.842-7.565 30.978-2 11.136-3.332 21.505-4 31.12-.665 9.617-.997 19.467-.997 29.555 0 22.836 6.95 40.875 20.842 54.104 13.896 13.224 32.36 19.835 55.39 19.835h249.533c23.028 0 41.49-6.612 55.388-19.836 13.902-13.23 20.846-31.265 20.846-54.104-.002-10.088-.334-19.938-1.008-29.554z"/>
</svg>
